# xmcd
#
# Track frame offsets:
#	150
#	17898
#	34403
#	50630
#	86284
#	104845
#	120722
#	132351
#	149301
#	161287
#
# Disc length: 2548 seconds
#
# Revision: 1
# Processed by: cddbd v1.5.2PL0 Copyright (c) Steve Scherf et al.
# Submitted via: audiograbber 1.83.01
#
DISCID=8a09f20a
DTITLE=Paul Collette - Another Man Paul Collette
DYEAR=1999
DGENRE=Country
TTITLE0=Baby, Baby
TTITLE1=Black Cadillac
TTITLE2=Take Me Back
TTITLE3=Youngstown Chill
TTITLE4=Another Man
TTITLE5=Seventeen
TTITLE6=To Be With You
TTITLE7=Little Man
TTITLE8=I´ll Come Runnin
TTITLE9=Going To A Party All Night Long Epilog
EXTD=
EXTT0=
EXTT1=
EXTT2=
EXTT3=
EXTT4=
EXTT5=
EXTT6=
EXTT7=
EXTT8=
EXTT9=
PLAYORDER=
